<svg xmlns="http://www.w3.org/2000/svg" viewBox="0 0 128 128" width="128" height="128">
  <defs>
    <linearGradient id="grad" x1="0%" y1="0%" x2="100%" y2="100%">
      <stop offset="0%" stop-color="#6366f1" />
      <stop offset="100%" stop-color="#a855f7" />
    </linearGradient>
    <filter id="shadow" x="-10%" y="-10%" width="120%" height="120%">
      <feDropShadow dx="0" dy="4" stdDeviation="4" flood-opacity="0.3"/>
    </filter>
  </defs>
  <circle cx="64" cy="64" r="56" fill="url(#grad)" filter="url(#shadow)" />
  <path d="M44 48 H54 L68 34 V94 L54 80 H44 C41.8 80 40 78.2 40 76 V52 C40 49.8 41.8 48 44 48 Z" fill="#ffffff" />
  <path d="M80 48 C85 53 88 60 88 67 C88 74 85 81 80 86" stroke="#ffffff" stroke-width="5" stroke-linecap="round" fill="none" />
  <path d="M92 36 C100 44 104 55 104 67 C104 79 100 90 92 98" stroke="#ffffff" stroke-width="5" stroke-linecap="round" fill="none" opacity="0.6" />
</svg>